<svg width="251" height="221" viewBox="0 0 251 221" fill="none" xmlns="http://www.w3.org/2000/svg">
<path d="M243.038 114.734C222.955 168.028 188.344 198.366 128.43 216.49C65.1231 235.64 11.2942 192.318 0.642166 114.734C-8.13386 50.8134 74.6665 -7.45351 149.586 0.779568C239.452 10.6552 266.343 52.8934 243.038 114.734Z" fill="#ECECF4"/>
<path fill-rule="evenodd" clip-rule="evenodd" d="M153.432 147.841C149.556 152.627 138.268 149.067 127.711 140.517C117.153 131.968 111.324 121.667 115.199 116.881C115.214 116.862 115.229 116.844 115.244 116.826L117.677 113.822L118.901 114.814C124.282 113.746 133.151 117.069 141.333 123.695C149.516 130.321 154.61 138.305 154.684 143.791L155.909 144.783L153.432 147.841L153.432 147.841C153.432 147.841 153.432 147.841 153.432 147.841Z" fill="#3886CA"/>
<ellipse cx="136.691" cy="129.389" rx="24.5982" ry="11.1512" transform="rotate(39 136.691 129.389)" fill="#66BDFF"/>
<path d="M132.205 130.768C131.962 130.517 131.969 130.116 132.221 129.873L128.254 126.414C127.942 126.142 127.93 125.662 128.228 125.375C128.492 125.12 128.909 125.11 129.184 125.354L133.215 128.913L134.051 128.106L130.766 124.029C130.483 123.677 130.514 123.167 130.84 122.853C131.165 122.538 131.677 122.525 132.019 122.822L135.97 126.253L136.81 125.442L133.386 121.297C133.152 121.013 133.175 120.597 133.44 120.342C133.737 120.055 134.216 120.084 134.476 120.404L137.795 124.49C138.052 124.242 138.46 124.249 138.708 124.506L138.955 124.761C139.259 125.076 139.25 125.578 138.935 125.882L140.046 127.253L140.081 127.219C140.438 126.875 141.005 126.885 141.349 127.241C141.693 127.597 141.683 128.165 141.327 128.509L141.185 128.646L144.43 132.64C144.746 133.029 144.712 133.595 144.351 133.942C143.993 134.288 143.431 134.305 143.053 133.981L139.138 130.622L138.303 131.429L141.527 135.448C141.84 135.838 141.804 136.402 141.445 136.749C141.084 137.098 140.516 137.113 140.137 136.783L136.26 133.402L136.123 133.535C135.767 133.879 135.199 133.869 134.855 133.512C134.511 133.156 134.521 132.589 134.877 132.245L134.904 132.218L133.573 131.061C133.262 131.36 132.768 131.352 132.469 131.042L132.205 130.768ZM138.671 128.581L139.086 128.18L137.958 126.826L137.33 127.432L138.671 128.581ZM135.881 131.275L136.288 130.882L135.177 129.511L134.563 130.104L135.881 131.275ZM137.185 130.016L137.764 129.456L136.428 128.303L136.084 128.636L137.185 130.016ZM140.235 129.564L140.018 129.773L141.824 131.413L140.235 129.564ZM139.008 134.133C138.621 133.703 138.095 133.083 137.427 132.275L137.22 132.475L139.008 134.133ZM134.917 127.269L135.099 127.094L133.451 125.565L134.917 127.269Z" fill="#327EC2"/>
<path fill-rule="evenodd" clip-rule="evenodd" d="M113.219 161.207C112.429 166.194 102.955 168.293 91.9536 166.551C80.9526 164.809 72.5907 159.885 73.3804 154.897L73.3793 154.897L73.8841 151.71L75.1612 151.912C78.5437 148.948 86.2035 147.672 94.7299 149.022C103.256 150.373 110.147 153.953 112.448 157.818L113.724 158.02L113.219 161.207Z" fill="#3886CA"/>
<ellipse cx="93.7662" cy="154.968" rx="20.1675" ry="9.14261" transform="rotate(9 93.7662 154.968)" fill="#66BDFF"/>
<path d="M91.1469 157.787C90.8714 157.708 90.7121 157.42 90.7911 157.145L86.5565 156.315C86.224 156.249 86.0185 155.913 86.1119 155.588C86.195 155.298 86.4869 155.121 86.7824 155.18L91.1036 156.055L91.3661 155.139L87.3625 153.591C87.0169 153.457 86.8304 153.082 86.9325 152.726C87.0348 152.369 87.3927 152.15 87.757 152.221L91.9689 153.037L92.2328 152.117L88.103 150.577C87.8203 150.472 87.6663 150.167 87.7495 149.877C87.8428 149.551 88.1947 149.376 88.5109 149.497L92.5425 151.037C92.623 150.756 92.916 150.594 93.1969 150.674L93.4768 150.754C93.8219 150.853 94.0215 151.213 93.9225 151.558L95.2731 152.077L95.2843 152.037C95.3962 151.647 95.8034 151.421 96.1936 151.533C96.5839 151.645 96.8096 152.052 96.6977 152.443L96.6531 152.598L100.594 154.104C100.978 154.251 101.186 154.666 101.072 155.061C100.96 155.453 100.567 155.696 100.166 155.62L96.0101 154.841L95.7476 155.756L99.6846 157.288C100.067 157.436 100.272 157.852 100.159 158.246C100.046 158.641 99.6485 158.884 99.2445 158.805L95.1059 157.994L95.0627 158.145C94.9508 158.535 94.5437 158.761 94.1534 158.649C93.7631 158.537 93.5374 158.13 93.6493 157.739L93.6578 157.71L92.2378 157.434C92.1404 157.773 91.786 157.97 91.4463 157.872L91.1469 157.787ZM94.8411 153.583L94.9717 153.128L93.6156 152.629L93.4183 153.317L94.8411 153.583ZM93.9647 156.639L94.0925 156.194L92.742 155.675L92.5489 156.349L93.9647 156.639ZM94.3745 155.21L94.5564 154.576L93.135 154.305L93.0267 154.682L94.3745 155.21ZM96.3545 153.64L96.2864 153.877L98.2414 154.301L96.3545 153.64ZM97.3566 157.387C96.9057 157.24 96.2777 157.016 95.4726 156.715L95.4073 156.943L97.3566 157.387ZM91.6383 154.19L91.6953 153.991L89.8984 153.581L91.6383 154.19Z" fill="#327EC2"/>
<path fill-rule="evenodd" clip-rule="evenodd" d="M136.529 102.554C139.164 112.387 123.436 124.022 101.746 129.834C80.0558 135.645 60.6172 133.433 57.9825 123.6L57.9686 123.548L56.2989 117.316L58.815 116.642C62.6141 108.409 75.6749 99.7774 92.4854 95.273C109.296 90.7686 124.923 91.7133 132.329 96.9439L134.847 96.2694L136.53 102.553L136.529 102.553C136.529 102.553 136.529 102.554 136.529 102.554Z" fill="#036AAF"/>
<ellipse cx="95.5721" cy="106.793" rx="40.6589" ry="18.432" transform="rotate(-15 95.5721 106.793)" fill="#66BDFF"/>
<path d="M95.3018 114.369C94.7796 114.549 94.2106 114.271 94.0308 113.749L94.0157 113.705L85.8975 117.304C85.3618 117.542 84.7375 117.27 84.5467 116.716L84.4381 116.4C84.2683 115.907 84.5059 115.367 84.9839 115.158L93.2715 111.544L92.6465 109.729L83.8508 111.898C83.3483 112.022 82.8343 111.743 82.6658 111.253L82.4017 110.486C82.2329 109.996 82.4666 109.458 82.94 109.247L91.2111 105.56L90.5827 103.735L81.8349 106.007C81.3295 106.138 80.8081 105.858 80.6381 105.364L80.5301 105.051C80.3393 104.496 80.6637 103.898 81.2322 103.755L89.8452 101.593L89.8235 101.53C89.6437 101.008 89.9212 100.439 90.4434 100.259L91.3552 99.9452C91.8774 99.7654 92.4464 100.043 92.6262 100.565L92.7273 100.859L95.5571 100.153L95.3733 99.6193C95.1935 99.0971 95.4711 98.528 95.9933 98.3482L96.905 98.0342C97.4272 97.8544 97.9963 98.132 98.1761 98.6542L98.4392 99.4184L107.219 97.2147C107.722 97.0883 108.239 97.3682 108.408 97.859L108.762 98.8872C108.93 99.3751 108.699 99.9107 108.229 100.124L99.9705 103.866L100.596 105.681L109.399 103.528C109.901 103.405 110.414 103.685 110.582 104.174L110.939 105.21C111.108 105.701 110.873 106.239 110.399 106.45L102.124 110.118L102.383 110.873C102.563 111.395 102.286 111.964 101.763 112.144L100.852 112.458C100.329 112.638 99.7604 112.36 99.5806 111.838L99.4034 111.324L96.7391 112.51L96.8335 112.784C97.0133 113.306 96.7358 113.875 96.2136 114.055L95.3018 114.369ZM96.5856 103.14L96.2748 102.237L93.4582 102.981L93.9279 104.345L96.5856 103.14ZM98.6725 109.201L98.3683 108.317L95.5385 109.023L95.9982 110.358L98.6725 109.201ZM97.6969 106.367L97.2636 105.109L94.6025 106.305L94.8605 107.054L97.6969 106.367ZM99.1503 101.483L99.3123 101.954L103.031 100.394L99.1503 101.483ZM105.138 106.513C104.224 106.792 102.928 107.148 101.25 107.583L101.406 108.034L105.138 106.513ZM91.9982 107.846L91.8626 107.452L88.4207 108.852L91.9982 107.846Z" fill="#036AAF"/>
<path fill-rule="evenodd" clip-rule="evenodd" d="M193.66 83.7307C191.085 96.978 165.583 101.701 136.36 96.0212C107.138 90.3411 85.2626 76.4082 87.8376 63.1609C87.8433 63.1316 87.8491 63.1024 87.855 63.0732L89.4835 54.6952L92.8729 55.3541C102.184 47.7516 122.763 45.0571 145.411 49.4594C168.059 53.8618 186.13 64.0689 191.916 74.6059L195.307 75.2651L193.661 83.7308L193.66 83.7306C193.66 83.7306 193.66 83.7307 193.66 83.7307Z" fill="#036AAF"/>
<ellipse cx="142.394" cy="64.9802" rx="53.9015" ry="24.4353" transform="rotate(11 142.394 64.9802)" fill="white"/>
<path d="M138.86 73.665C138.315 73.5786 137.942 73.0664 138.029 72.5209L138.089 72.1386L125.993 71.2736C125.408 71.2318 124.985 70.6985 125.077 70.1197L125.248 69.0353C125.33 68.5203 125.794 68.1544 126.313 68.1948L138.563 69.1458L138.962 66.6318L127.027 63.6246C126.525 63.4982 126.203 63.0097 126.284 62.4985L126.545 60.8476C126.626 60.3357 127.085 59.9705 127.602 60.0064L139.876 60.8591L140.276 58.3318L128.33 55.476C127.822 55.3546 127.493 54.8628 127.575 54.347L127.746 53.2645C127.838 52.6856 128.405 52.3094 128.974 52.4502L140.746 55.3656L140.811 54.9567C140.897 54.4112 141.409 54.039 141.955 54.1254L143.861 54.4273C144.406 54.5137 144.778 55.0259 144.692 55.5714L144.577 56.2996L148.328 57.2346L148.496 56.1739C148.583 55.6284 149.095 55.2563 149.64 55.3427L151.546 55.6446C152.092 55.7309 152.464 56.2432 152.378 56.7887L152.159 58.1686L164.098 61.1253C164.601 61.2501 164.926 61.7397 164.845 62.2524L164.526 64.2643C164.445 64.7739 163.99 65.1385 163.475 65.1058L151.184 64.3271L150.785 66.8411L162.718 69.8735C163.219 70.0008 163.54 70.4887 163.459 70.9991L163.139 73.0225C163.058 73.5352 162.598 73.9005 162.08 73.8635L149.812 72.9863L149.596 74.3529C149.509 74.8984 148.997 75.2706 148.452 75.1842L146.546 74.8823C146 74.7959 145.628 74.2837 145.714 73.7382L145.878 72.7041L142.021 72.4341L141.91 73.1357C141.824 73.6811 141.312 74.0533 140.766 73.9669L138.86 73.665ZM147.673 61.3714L147.871 60.121L144.111 59.2392L143.812 61.128L147.673 61.3714ZM146.344 69.7645L146.538 68.5408L142.786 67.6057L142.493 69.4546L146.344 69.7645ZM146.965 65.8406L147.241 64.0981L143.382 63.8414L143.218 64.8789L146.965 65.8406ZM151.706 61.0284L151.603 61.6802L156.927 62.1689L151.706 61.0284ZM155.585 70.6419C154.341 70.3994 152.602 70.0103 150.368 69.4747L150.269 70.0999L155.585 70.6419ZM139.374 64.0248L139.461 63.4794L134.561 62.976L139.374 64.0248Z" fill="#036AAF"/>
</svg>
