<svg width="256" height="220" viewBox="0 0 256 220" fill="none" xmlns="http://www.w3.org/2000/svg">
<path d="M237.5 115.25C216.121 145.72 223.038 213.144 105.045 219.018C35.2786 222.491 -8.38701 150.185 1.41695 109.746C15.0778 53.3978 34.0427 4.20606 105.045 0.915572C237.197 -5.20878 285.04 47.4956 237.5 115.25Z" fill="#ECECF4"/>
<g clip-path="url(#clip0)">
<path d="M129.235 157.305C157.34 157.305 180.124 134.521 180.124 106.416C180.124 78.3112 157.34 55.5275 129.235 55.5275C101.13 55.5275 78.3462 78.3112 78.3462 106.416C78.3462 134.521 101.13 157.305 129.235 157.305Z" fill="#66BDFF"/>
<path d="M180.124 106.416C180.124 96.2061 177.118 86.6987 171.941 78.7306C171.941 78.7306 169.038 82.9715 169.583 85.6974C170.128 88.4237 173.331 88.6319 173.002 90.6316C172.673 92.6314 170.311 90.0593 167.402 95.3295C164.494 100.6 165.949 107.872 170.128 108.416C174.308 108.96 180.124 106.416 180.124 106.416Z" fill="#036AAF"/>
<path d="M142.599 57.3007C148.523 58.9084 154.016 61.5594 158.871 65.0435C158.871 65.0435 152.971 64.0703 150.735 66.0689C148.5 68.068 145.24 72.7941 142.599 66.0689C139.959 59.344 142.599 57.3007 142.599 57.3007Z" fill="#66BDFF"/>
<path d="M90.9728 72.8653C100.299 62.2372 113.983 55.5275 129.235 55.5275C129.235 55.5275 125.783 57.6179 132.325 61.1618C138.868 64.7062 135.869 66.3416 134.506 67.4321C133.143 68.5226 130.779 65.2512 129.235 63.0705C127.691 60.8893 121.059 57.5274 115.969 59.3453C110.88 61.1632 106.519 62.506 107.246 64.1973C107.972 65.8881 116.696 62.6179 119.967 62.7988C123.239 62.9801 122.148 64.9789 119.059 67.3418C115.969 69.7048 115.605 72.6124 118.877 74.4297C122.148 76.2478 126.146 76.4297 127.055 75.3393C127.965 74.2488 125.42 67.1607 131.599 70.2501C137.779 73.3394 142.868 75.1582 137.779 79.7013C132.69 84.2439 126.874 89.3346 126.692 92.2414C126.51 95.1486 128.51 97.5132 127.42 97.6941C126.329 97.875 125.328 96.5131 124.602 95.5128C123.875 94.5131 120.512 94.1501 118.877 94.7857C117.241 95.4212 114.151 97.875 115.878 100.238C117.605 102.601 119.966 101.509 122.329 102.6C124.692 103.691 126.896 107.841 126.443 108.779C125.991 109.717 123.977 108.529 122.329 105.326C120.682 102.123 117.591 104.236 115.417 103.691C113.242 103.146 111.607 102.782 109.426 98.9653C107.244 95.1488 102.729 94.0808 100.884 91.8774C95.5985 85.566 95.9766 80.791 94.8863 78.6101C93.7957 76.4287 90.9728 72.8653 90.9728 72.8653Z" fill="#036AAF"/>
<path d="M134.142 107.144C134.142 107.144 139.595 107.688 142.321 110.051C145.047 112.414 145.411 113.323 149.591 114.232C153.771 115.14 155.589 117.502 152.862 122.046C150.136 126.59 145.228 133.86 142.866 136.041C140.504 138.222 137.596 140.04 136.505 143.674C135.415 147.309 135.051 149.488 137.414 150.944C137.414 150.944 136.142 154.034 133.234 150.035C130.326 146.036 132.689 141.311 133.234 138.585C133.779 135.859 135.233 127.681 134.324 125.681C133.416 123.682 129.235 122.409 128.145 118.23C127.054 114.05 128.963 105.916 134.142 107.144Z" fill="#036AAF"/>
</g>
<g clip-path="url(#clip1)">
<path d="M129.157 55.2529C113.906 55.2529 100.222 61.9627 90.8951 72.5907C90.8951 72.5907 93.7181 76.1541 94.8086 78.3356C95.9262 76.9421 99.4568 74.1552 104.638 74.1552C111.115 74.1552 111.578 75.6085 114.816 75.6085C117.407 75.6085 118.551 74.6396 118.799 74.1552C115.528 72.3379 115.892 69.4303 118.981 67.0673C122.07 64.7043 123.161 62.7056 119.889 62.5243C116.618 62.3434 107.894 65.6136 107.168 63.9227C106.442 62.2315 110.803 60.8887 115.892 59.0708C120.981 57.2529 127.613 60.6147 129.157 62.796C130.702 64.9767 133.066 68.2481 134.429 67.1575C135.792 66.067 138.791 64.4316 132.248 60.8873C125.705 57.3433 129.157 55.2529 129.157 55.2529Z" fill="white"/>
<path opacity="0.6" d="M93.0725 70.1582C112.946 50.2843 145.166 50.2847 165.04 70.1582C184.914 90.0313 184.914 122.252 165.04 142.126C165.04 142.126 188.129 111.594 155.44 78.9059C122.752 46.2174 93.0725 70.1582 93.0725 70.1582Z" fill="#036AAF"/>
<path d="M137.336 150.669C134.973 149.214 135.337 147.034 136.428 143.4C136.516 141.478 135.986 137.768 133.156 138.311C132.611 141.037 130.248 145.762 133.156 149.761C136.065 153.759 137.336 150.669 137.336 150.669Z" fill="white"/>
</g>
<defs>
<clipPath id="clip0">
<rect width="101.778" height="101.778" fill="white" transform="translate(78.3462 55.5275)"/>
</clipPath>
<clipPath id="clip1">
<rect width="101.778" height="101.778" fill="white" transform="translate(78.2686 55.2529)"/>
</clipPath>
</defs>
</svg>
