<svg width="256" height="220" viewBox="0 0 256 220" fill="none" xmlns="http://www.w3.org/2000/svg">
<path d="M245.816 136.599C211.099 189.22 191.466 215.66 133.514 219.121C71.2587 222.839 -4.38802 173.526 1.28756 110.271C5.01978 68.675 72.2313 4.58022 133.514 1.17115C221.98 -3.75012 280.3 84.3294 245.816 136.599Z" fill="#ECECF4"/>
<g clip-path="url(#clip0)">
<path d="M165.804 98.9666H80.891V153.102C80.891 155.864 83.1296 158.102 85.891 158.102H160.804C163.565 158.102 165.804 155.864 165.804 153.102V98.9666Z" fill="white"/>
<path d="M143.059 79.2548H103.635H85.891C83.1296 79.2548 80.891 81.4933 80.891 84.2548V98.9666H165.804V84.2548C165.804 81.4933 163.565 79.2548 160.804 79.2548H143.059Z" fill="#66BDFF"/>
<path d="M163.697 178.914C175.511 178.914 185.087 169.337 185.087 157.523C185.087 145.71 175.511 136.133 163.697 136.133C151.884 136.133 142.307 145.71 142.307 157.523C142.307 169.337 151.884 178.914 163.697 178.914Z" fill="#66BDFF"/>
<path d="M173.79 148.768C172.979 148.205 171.87 148.404 171.308 149.214L161.333 163.545L154.294 157.766C153.535 157.14 152.41 157.253 151.786 158.014C151.16 158.775 151.271 159.898 152.034 160.522L160.565 167.525C160.886 167.787 161.285 167.93 161.695 167.93C161.775 167.93 161.857 167.925 161.939 167.914C162.431 167.844 162.873 167.575 163.159 167.167L174.235 151.251C174.797 150.442 174.597 149.331 173.79 148.768Z" fill="#191847"/>
<rect x="91.262" y="106.803" width="6.48188" height="6.48188" rx="1" fill="#66BDFF"/>
<rect x="100.985" y="106.803" width="6.48188" height="6.48188" rx="1" fill="#66BDFF"/>
<rect x="110.708" y="106.803" width="6.48188" height="6.48188" rx="1" fill="#66BDFF"/>
<rect x="120.431" y="106.803" width="6.48189" height="6.48188" rx="1" fill="#66BDFF"/>
<rect x="130.153" y="106.803" width="6.48188" height="6.48188" rx="1" fill="#66BDFF"/>
<rect x="139.876" y="106.803" width="6.48188" height="6.48188" rx="1" fill="#66BDFF"/>
<rect x="149.599" y="106.803" width="6.48189" height="6.48188" rx="1" fill="#036AAF"/>
<rect x="91.262" y="117.336" width="6.48188" height="6.48188" rx="1" fill="#66BDFF"/>
<rect x="100.985" y="117.336" width="6.48188" height="6.48188" rx="1" fill="#036AAF"/>
<rect x="110.708" y="117.336" width="6.48188" height="6.48188" rx="1" fill="#66BDFF"/>
<rect x="120.431" y="117.336" width="6.48189" height="6.48188" rx="1" fill="#036AAF"/>
<rect x="130.153" y="117.336" width="6.48188" height="6.48188" rx="1" fill="#66BDFF"/>
<rect x="139.876" y="117.336" width="6.48188" height="6.48188" rx="1" fill="#66BDFF"/>
<rect x="149.599" y="117.336" width="6.48189" height="6.48188" rx="1" fill="#66BDFF"/>
<rect x="91.262" y="127.869" width="6.48188" height="6.48188" rx="1" fill="#66BDFF"/>
<rect x="100.985" y="127.869" width="6.48188" height="6.48188" rx="1" fill="#66BDFF"/>
<rect x="110.708" y="127.869" width="6.48188" height="6.48188" rx="1" fill="#66BDFF"/>
<rect x="120.431" y="127.869" width="6.48189" height="6.48188" rx="1" fill="#036AAF"/>
<rect x="130.153" y="127.869" width="6.48188" height="6.48188" rx="1" fill="#036AAF"/>
<rect x="139.876" y="127.869" width="6.48188" height="6.48188" rx="1" fill="#66BDFF"/>
<rect x="149.599" y="127.869" width="6.48189" height="6.48188" rx="1" fill="#66BDFF"/>
<rect x="91.262" y="139.212" width="6.48188" height="6.48188" rx="1" fill="#66BDFF"/>
<rect x="100.985" y="139.212" width="6.48188" height="6.48188" rx="1" fill="#66BDFF"/>
<rect x="110.708" y="139.212" width="6.48188" height="6.48188" rx="1" fill="#036AAF"/>
<rect x="120.431" y="139.212" width="6.48189" height="6.48188" rx="1" fill="#66BDFF"/>
<rect x="130.153" y="139.212" width="6.48188" height="6.48188" rx="1" fill="#66BDFF"/>
</g>
<defs>
<clipPath id="clip0">
<rect width="106.951" height="106.951" fill="white" transform="translate(79.1085 79.2548)"/>
</clipPath>
</defs>
</svg>
