<svg width="252" height="223" viewBox="0 0 252 223" fill="none" xmlns="http://www.w3.org/2000/svg">
<path d="M232.255 115.602C199.249 174.252 240.629 199.046 118.432 219.773C36.823 233.615 -16.4303 203.663 4.60819 115.602C17.5306 61.5133 44.6515 33.0602 118.432 11.853C267.044 -30.8639 268.746 50.7591 232.255 115.602Z" fill="#ECECF4"/>
<rect x="99.498" y="41.2225" width="82.9087" height="117.788" rx="1" transform="rotate(10 99.498 41.2225)" fill="white"/>
<mask id="mask0" mask-type="alpha" maskUnits="userSpaceOnUse" x="107" y="62" width="53" height="53">
<circle cx="133.5" cy="88.1157" r="26.0621" transform="rotate(10 133.5 88.1157)" fill="#DBDDFF"/>
</mask>
<g mask="url(#mask0)">
<circle cx="133.5" cy="88.1157" r="26.0621" transform="rotate(10 133.5 88.1157)" fill="#66BDFF"/>
<path fill-rule="evenodd" clip-rule="evenodd" d="M132.744 105.102C128.866 107.001 125.153 107.757 123.492 107.17C119.328 105.699 120.3 90.0791 124.134 84.2229C127.967 78.3668 145.147 77.1711 144.936 89.4201C144.862 93.671 142.759 97.2863 139.869 100.134L142.652 122.453L129.001 121.258L132.744 105.102Z" fill="#FDD3CD"/>
<path fill-rule="evenodd" clip-rule="evenodd" d="M133.397 89.7638C133.397 89.7638 131.657 100.618 128.294 100.324C124.931 100.029 122.264 97.6442 120.788 97.5151C119.712 97.4209 119.835 98.7885 120.46 99.8492C120.977 100.724 123.772 101.769 123.661 103.046C123.549 104.323 121.372 103.137 121.305 103.894C121.196 105.147 120.592 107.468 122.766 107.658C124.966 107.85 131.343 107.6 132.71 104.429C134.077 101.258 135.287 90.7831 135.287 90.7831L133.397 89.7638Z" fill="#191847"/>
<path d="M141.306 104.834C141.642 103.353 141.912 102.109 142.103 100.835C142.332 99.3008 142.446 98.5338 142.058 98.1748C141.91 98.0388 141.675 97.9334 141.476 97.9141C140.949 97.863 140.444 98.4703 139.433 99.6848C138.627 100.654 137.87 101.701 137.063 103.07C136.916 103.319 136.843 103.443 136.818 103.654C136.811 103.72 136.814 103.867 136.825 103.932C136.86 104.142 136.909 104.216 137.006 104.364C137.497 105.108 138.401 105.684 139.447 106.026C139.941 106.188 140.188 106.269 140.496 106.172C140.611 106.135 140.764 106.048 140.855 105.968C141.097 105.755 141.166 105.448 141.306 104.834Z" fill="#036AAF"/>
<path fill-rule="evenodd" clip-rule="evenodd" d="M147.634 78.1065L126.216 73.554C125.774 77.4832 125.31 79.7145 124.236 83.1957C124.154 83.3591 124.093 83.5302 124.055 83.7086C124.044 83.7592 124.035 83.8099 124.028 83.8609C124.025 83.8718 124.021 83.8827 124.018 83.8936L124.024 83.8949C123.725 86.4064 128.012 89.3741 133.783 90.6007C139.554 91.8274 144.677 90.8598 145.425 88.4438L145.436 88.4461L147.634 78.1065Z" fill="#036AAF"/>
<path d="M145.626 83.2951C145.77 87.1593 144.813 92.3659 142.968 95.7986" stroke="#036AAF"/>
<circle cx="142.235" cy="97.2288" r="2.26514" transform="rotate(12 142.235 97.2288)" fill="#036AAF"/>
<path d="M121.21 77.0494C119.937 75.8424 119.3 75.2389 119.49 74.6413C119.681 74.0437 120.578 73.9153 122.373 73.6584C127.122 72.9788 131.669 71.969 135.841 70.5588C137.054 70.1487 137.661 69.9436 138.197 70.0574C138.733 70.1712 139.194 70.5953 140.115 71.4436C143.675 74.7204 146.718 77.004 151.048 79.7049C152.613 80.6816 153.396 81.1699 153.319 81.8021C153.242 82.4342 152.387 82.7133 150.678 83.2714C146.561 84.6154 142.838 85.5146 138.868 86.1515C136.856 86.4742 135.85 86.6355 134.612 86.3873C133.374 86.1391 132.552 85.6298 130.909 84.6111C127.39 82.4305 124.275 79.9566 121.21 77.0494Z" fill="#3886CA"/>
</g>
<rect x="104.133" y="118.92" width="47.1271" height="2.61817" rx="1.30908" transform="rotate(10 104.133 118.92)" fill="#191847"/>
<rect x="102.92" y="125.796" width="47.1271" height="2.61817" rx="1.30908" transform="rotate(10 102.92 125.796)" fill="#191847"/>
<rect x="101.708" y="132.671" width="47.1271" height="2.61817" rx="1.30908" transform="rotate(10 101.708 132.671)" fill="#191847"/>
<path d="M85.5029 162.994L107.972 187.849" stroke="#036AAF" stroke-width="4" stroke-linecap="round"/>
<ellipse rx="19.0064" ry="18.9583" transform="matrix(0 1 1 0 73.5662 149.247)" fill="#66BDFF"/>
<path d="M72.8641 137.551C66.6594 137.551 61.6295 142.787 61.6295 149.247" stroke="white" stroke-width="3" stroke-linecap="round"/>
<path d="M101.279 170.773C98.7726 168.163 94.7084 168.163 92.2017 170.773C89.695 173.383 89.695 177.614 92.2017 180.223L102.523 190.969C105.03 193.579 109.094 193.579 111.601 190.969C114.108 188.359 114.108 184.128 111.601 181.519L101.279 170.773Z" fill="#036AAF"/>
</svg>
