<svg width="16" height="16" viewBox="0 0 16 16" fill="none" xmlns="http://www.w3.org/2000/svg">
<mask id="path-1-inside-1" fill="white">
<path fill-rule="evenodd" clip-rule="evenodd" d="M8 2C3.58255 2 0 7.00025 0 8C0 8.99975 3.58255 14 8 14C12.4175 14 16 8.99975 16 8C16 7.00025 12.4175 2 8 2Z"/>
</mask>
<path fill-rule="evenodd" clip-rule="evenodd" d="M8 2C3.58255 2 0 7.00025 0 8C0 8.99975 3.58255 14 8 14C12.4175 14 16 8.99975 16 8C16 7.00025 12.4175 2 8 2Z" fill="white"/>
<path d="M8 1C5.42191 1 3.18597 2.44581 1.65481 3.9C0.877133 4.63858 0.242733 5.41481 -0.204109 6.08731C-0.42704 6.42283 -0.61254 6.74641 -0.746397 7.03827C-0.863012 7.29254 -1 7.64644 -1 8H1C1 8.10362 0.974967 8.08257 1.07153 7.87203C1.15085 7.69908 1.27974 7.46799 1.4617 7.19415C1.82463 6.64793 2.36196 5.98664 3.0321 5.35019C4.39658 4.05431 6.16063 3 8 3V1ZM-1 8C-1 8.35356 -0.863012 8.70746 -0.746397 8.96173C-0.61254 9.25359 -0.42704 9.57717 -0.204109 9.91269C0.242733 10.5852 0.877133 11.3614 1.65481 12.1C3.18597 13.5542 5.42191 15 8 15V13C6.16063 13 4.39658 11.9457 3.0321 10.6498C2.36196 10.0134 1.82463 9.35207 1.4617 8.80585C1.27974 8.53201 1.15085 8.30092 1.07153 8.12797C0.974967 7.91743 1 7.89638 1 8H-1ZM8 15C10.5781 15 12.814 13.5542 14.3452 12.1C15.1229 11.3614 15.7573 10.5852 16.2041 9.91269C16.427 9.57717 16.6125 9.25359 16.7464 8.96173C16.863 8.70746 17 8.35356 17 8H15C15 7.89638 15.025 7.91743 14.9285 8.12797C14.8492 8.30092 14.7203 8.53201 14.5383 8.80585C14.1754 9.35207 13.638 10.0134 12.9679 10.6498C11.6034 11.9457 9.83937 13 8 13V15ZM17 8C17 7.64644 16.863 7.29254 16.7464 7.03827C16.6125 6.74641 16.427 6.42283 16.2041 6.08731C15.7573 5.41481 15.1229 4.63858 14.3452 3.9C12.814 2.44581 10.5781 1 8 1V3C9.83937 3 11.6034 4.05431 12.9679 5.35019C13.638 5.98664 14.1754 6.64793 14.5383 7.19415C14.7203 7.46799 14.8492 7.69908 14.9285 7.87203C15.025 8.08257 15 8.10362 15 8H17Z" fill="#D9D9E8" mask="url(#path-1-inside-1)"/>
<path fill-rule="evenodd" clip-rule="evenodd" d="M8 10C6.89533 10 6 9.10467 6 8C6 6.89533 6.89533 6 8 6C9.10467 6 10 6.89533 10 8C10 9.10467 9.10467 10 8 10Z" fill="#D9D9E8" stroke="#D9D9E8" stroke-width="2" stroke-linecap="round" stroke-linejoin="round"/>
</svg>
