<svg width="168" height="160" viewBox="0 0 168 160" fill="none" xmlns="http://www.w3.org/2000/svg">
<path d="M163.933 82.9889C148.297 119.932 156.878 132.262 93.4709 147.921C33.9417 162.622 -18.1057 125.412 7.1562 65.932C20.7017 34.0387 19.0587 14.4632 66.1559 7.93204C149.22 -3.58691 176.26 53.8641 163.933 82.9889Z" fill="#ECECF4"/>
<path d="M92.3296 86.8594L74.1396 90.0667L79.9884 123.237L88.2343 116.818L98.1783 120.029L92.3296 86.8594Z" fill="#66BDFF"/>
<path d="M105.386 68.2081L105.764 59.2563L102.562 57.273L98.1996 54.5707L94.1127 48.3218L93.305 47.0887L86.034 47.6505L84.485 47.7704L76.188 44.6164L73.9489 46.5514L69.4701 50.4179L69.1274 50.5128L60.9452 52.7946L58.9011 61.5001L53.3961 68.494L56.8126 76.7769L56.4344 85.725L63.9994 90.4143L68.8941 97.8963L74.1489 97.4869L77.7134 97.2109L80.2725 98.185L84.705 99.8709L86.0104 100.365L90.6567 96.354L92.1179 95.0925L92.729 94.5671L101.255 92.1941L103.296 83.4929L105.051 81.26L108.797 76.4997L105.386 68.2081Z" fill="white"/>
<path d="M37.4 77.847C37.397 78.1485 37.2935 79.65 35.6 79.65C35.597 79.65 35.597 79.65 35.5955 79.65C35.5925 79.65 35.591 79.65 35.588 79.65C35.5865 79.65 35.5865 79.65 35.5865 79.65H35.585C35.585 79.65 35.5835 79.65 35.582 79.65C35.2595 79.659 35 79.9245 35 80.25C35 80.58 35.267 80.8485 35.597 80.85C35.8985 80.853 37.4 80.9565 37.4 82.65C37.4 82.9815 37.6685 83.25 38 83.25C38.3315 83.25 38.6 82.9815 38.6 82.65C38.6 80.9565 40.1015 80.853 40.403 80.85C40.733 80.8485 41 80.58 41 80.25C41 79.9185 40.7315 79.65 40.4 79.65C38.7065 79.65 38.603 78.147 38.6 77.85C38.6 77.847 38.6 77.847 38.6 77.847C38.6 77.8425 38.5985 77.838 38.6 77.838V77.8365V77.835C38.6 77.835 38.6 77.8335 38.6 77.832C38.591 77.5095 38.3255 77.25 38 77.25C37.67 77.25 37.4015 77.517 37.4 77.847Z" fill="#66BDFF"/>
<path d="M118.7 92.802C118.698 92.9535 118.646 93.7035 117.8 93.7035H117.799H117.795H117.794H117.792C117.63 93.708 117.5 93.8415 117.5 94.0035C117.5 94.1685 117.634 94.302 117.799 94.3035C117.95 94.305 118.7 94.3575 118.7 95.2035C118.7 95.37 118.834 95.5035 119 95.5035C119.166 95.5035 119.3 95.37 119.3 95.2035C119.3 94.3575 120.05 94.305 120.201 94.3035C120.366 94.302 120.5 94.1685 120.5 94.0035C120.5 93.837 120.366 93.7035 120.2 93.7035C119.352 93.7035 119.302 92.952 119.3 92.8035V92.802C119.3 92.8005 119.299 92.7975 119.299 92.7975C119.3 92.7975 119.3 92.7975 119.3 92.7975V92.796V92.7945C119.296 92.6325 119.163 92.5035 119 92.5035C118.835 92.5035 118.701 92.637 118.7 92.802Z" fill="#3886CA"/>
<path d="M123.65 67.485C123.647 67.7865 123.544 69.288 121.85 69.288C121.847 69.288 121.847 69.288 121.847 69.288C121.844 69.288 121.841 69.288 121.84 69.288C121.838 69.288 121.838 69.288 121.838 69.288H121.835C121.835 69.288 121.834 69.288 121.832 69.288C121.51 69.297 121.25 69.5625 121.25 69.888C121.25 70.218 121.517 70.4865 121.847 70.488C122.148 70.491 123.65 70.5945 123.65 72.288C123.65 72.6195 123.918 72.888 124.25 72.888C124.582 72.888 124.85 72.6195 124.85 72.288C124.85 70.5945 126.352 70.491 126.653 70.488C126.983 70.4865 127.25 70.218 127.25 69.888C127.25 69.5565 126.981 69.288 126.65 69.288C124.956 69.288 124.853 67.785 124.85 67.488C124.85 67.485 124.85 67.485 124.85 67.4835C124.85 67.4805 124.849 67.476 124.85 67.476C124.85 67.4745 124.85 67.4745 124.85 67.4745V67.473C124.85 67.473 124.85 67.4715 124.85 67.47C124.841 67.1475 124.576 66.888 124.25 66.888C123.92 66.888 123.651 67.155 123.65 67.485Z" fill="#66BDFF"/>
<path d="M70.6783 76.7324L78.463 82.2492L91.7277 62.9025" stroke="#191847" stroke-width="3" stroke-linecap="round" stroke-linejoin="round"/>
</svg>
