<svg width="593" height="421" viewBox="0 0 593 421" fill="none" xmlns="http://www.w3.org/2000/svg">
<path fill-rule="evenodd" clip-rule="evenodd" d="M0.190279 218.694C8.33015 132.568 445.069 -33.6644 526.148 47.9126C607.227 129.49 586.704 301.077 416.793 340.282C246.881 379.487 -7.94959 304.82 0.190279 218.694Z" fill="#3C99DE"/>
<path d="M501.233 34.2356L519.801 15.6604C522.925 12.5346 527.992 12.5346 531.117 15.6604L580.549 65.1131C583.548 68.1135 585.233 72.1822 585.233 76.4245V424" stroke="#66BDFF" stroke-width="8"/>
<path d="M465.732 23.3345C478.619 10.4472 499.514 10.4472 512.401 23.3345C525.288 36.2218 525.288 57.1163 512.401 70.0036L492.602 89.8025L445.933 43.1335L465.732 23.3345Z" fill="#272560"/>
<path fill-rule="evenodd" clip-rule="evenodd" d="M465.461 70.5269C478.349 83.4142 490.854 91.8036 493.392 89.2652C495.93 86.7268 487.541 74.2218 474.654 61.3345C461.766 48.4472 449.261 40.0578 446.723 42.5962C444.184 45.1346 452.574 57.6396 465.461 70.5269Z" fill="#F2F2F2"/>
</svg>
