<svg width="536" height="428" viewBox="0 0 536 428" fill="none" xmlns="http://www.w3.org/2000/svg">
<path d="M31.6105 360.49C31.6105 351.653 38.7739 344.49 47.6105 344.49H222.549C231.386 344.49 238.549 351.653 238.549 360.49V510.089C238.549 518.925 231.386 526.089 222.549 526.089H47.6105C38.7739 526.089 31.6105 518.925 31.6105 510.089V360.49Z" fill="#CAC8F5"/>
<path fill-rule="evenodd" clip-rule="evenodd" d="M378.14 508.196C350.385 474.303 331.605 449.177 321.801 432.817C305.013 404.804 291.273 379.877 286.938 370.356C276.598 347.65 310.741 337.018 318.468 347.609C330.164 363.638 355.141 414.078 393.401 498.929L378.14 508.196Z" fill="#B28B67"/>
<path fill-rule="evenodd" clip-rule="evenodd" d="M321.265 498.342L269.611 368.318C258.564 344.615 311.915 329.035 320.034 340.066C338.467 365.109 382.278 463.9 387.77 471.361L321.265 498.342Z" fill="#191847"/>
<path fill-rule="evenodd" clip-rule="evenodd" d="M183.693 472.266C193.755 457.589 230.354 408.21 250.288 387.779C256.016 381.908 261.606 376.273 266.892 371.022C282.606 355.413 313.897 381.648 298.212 395.864C259.152 431.27 202.16 479.065 197.399 483.327C190.725 489.3 177.37 481.49 183.693 472.266Z" fill="#B28B67"/>
<path fill-rule="evenodd" clip-rule="evenodd" d="M253.806 366.248C253.806 366.248 186.627 364.321 164.756 360.465C123.195 353.136 111.075 330.771 118.241 281.975L194.816 281.975C210.017 286.364 324.623 327.706 324.623 327.706C338.036 334.364 335.538 353.997 333.086 360.465C332.936 360.86 265.251 476.703 265.251 476.703L193.086 443L253.923 370.95C253.923 370.95 255.956 366.856 253.806 366.248Z" fill="#272560"/>
<path fill-rule="evenodd" clip-rule="evenodd" d="M150.384 114.073C160.171 119.99 169.786 122.849 174.3 121.682C185.618 118.755 186.659 77.2193 177.901 60.8444C169.144 44.4696 124.123 37.3323 121.854 69.7762C121.066 81.0364 125.78 91.0854 132.743 99.2853L120.257 157.667H156.527L150.384 114.073Z" fill="white"/>
<path fill-rule="evenodd" clip-rule="evenodd" d="M129.956 106.588C125.404 86.272 112.435 72.423 114.416 63.3424C116.397 54.2618 124.974 52.0486 124.974 52.0486C124.974 52.0486 129.41 34.0458 153.589 36.734C177.767 39.4222 192.524 49.4951 186.151 71.6596C180.293 71.6596 173.221 69.5343 163.442 73.1757C158.787 74.9087 156.784 83.9245 156.784 83.9245H152.365C152.365 83.9245 145.931 73.2253 139.678 76.0611C133.424 78.897 136.835 89.8379 136.835 89.8379L134.658 106.588H129.956Z" fill="#191847"/>
<path fill-rule="evenodd" clip-rule="evenodd" d="M49.0638 334.768C53.1891 326.399 67.2377 244.83 67.2377 244.83L96.6559 244.945C96.6559 244.945 69.4094 332.902 67.2377 338.284C64.4167 345.275 69.2086 355.433 72.4579 362.32C72.9606 363.386 73.4263 364.373 73.8213 365.258C69.3127 367.276 67.147 364.837 64.8637 362.266C62.2848 359.363 59.556 356.29 53.1321 359.279C50.6503 360.433 48.3018 361.798 46.0073 363.132C38.0818 367.739 30.8009 371.971 20.8963 365.86C19.3261 364.891 17.6054 361.243 21.7629 358.392C32.1207 351.29 47.047 338.86 49.0638 334.768ZM278.66 289.666L233.756 256.692L223.829 281.23L268.297 299.669C280.873 314.442 287.905 320.601 289.393 318.145C290.649 316.074 289.667 314.135 288.764 312.35C288.06 310.959 287.403 309.66 287.887 308.465C288.991 305.734 297.439 306.022 305.444 306.638C313.449 307.253 311.116 303.691 309.186 301.932C301.015 297.041 290.839 292.952 278.66 289.666Z" fill="white"/>
<path fill-rule="evenodd" clip-rule="evenodd" d="M139.946 131.388L152.119 129.3C197.285 168.316 215.836 243.271 271.197 282.977L257.872 299.494C161.83 287.603 138.025 196.176 139.946 131.388Z" fill="#66BDFF"/>
<path fill-rule="evenodd" clip-rule="evenodd" d="M97.7744 284.364C97.7744 284.364 170.988 284.364 205.483 284.364C210.405 284.364 209.477 277.257 208.766 273.671C200.555 232.283 168.501 187.668 168.501 128.753L137.433 123.881C111.736 165.21 102.849 216.095 97.7744 284.364Z" fill="#ECECF4"/>
<path fill-rule="evenodd" clip-rule="evenodd" d="M81.3454 313.927C78.0047 321.022 74.7366 327.304 71.603 332.489H48.5033C46.0615 257.491 75.3884 199.48 100.563 163.886C95.4483 163.218 90.8891 160.788 87.9202 155.431C76.5647 134.941 80.6657 123.659 92.8011 119.951C99.4742 117.912 105.75 119.304 113.263 120.97C119.411 122.333 126.386 123.88 135.085 123.881C135.088 123.881 135.091 123.881 135.094 123.881C135.937 123.881 136.704 123.938 137.4 124.046L147.709 124.634C147.709 124.634 189.567 266.493 170.797 313.927H81.3454Z" fill="#66BDFF"/>
<path fill-rule="evenodd" clip-rule="evenodd" d="M85.6635 313.927C92.0148 298.673 98.5277 280.868 104.795 262.48C107.128 282.73 111.014 303.068 117.483 313.927H85.6635Z" fill="black" fill-opacity="0.1"/>
<path d="M359.086 161.139C359.131 159.278 359.163 158.041 359.286 157.104C359.404 156.204 359.582 155.811 359.77 155.559C359.954 155.312 360.175 155.095 360.426 154.915C360.682 154.732 361.078 154.56 361.981 154.457C362.921 154.349 364.161 154.337 366.025 154.323L490.079 153.368C492.044 153.353 493.356 153.345 494.349 153.446C495.304 153.543 495.717 153.722 495.979 153.913L497.155 152.308L495.979 153.913C496.238 154.102 496.464 154.33 496.65 154.59L498.277 153.432L496.65 154.591C496.838 154.854 497.013 155.268 497.099 156.223C497.188 157.216 497.166 158.525 497.127 160.487L495.477 245.579C495.426 245.647 495.286 245.793 494.943 246.005C494.248 246.436 493.089 246.892 491.394 247.324C488.034 248.182 483.121 248.813 477.042 249.243C464.92 250.102 448.573 250.137 431.711 249.767C400.321 249.078 367.352 246.991 357.046 246.277L359.086 161.139ZM495.503 245.537C495.504 245.537 495.501 245.543 495.493 245.556C495.498 245.543 495.502 245.537 495.503 245.537Z" fill="#87D5ED" stroke="#272560" stroke-width="4"/>
<mask id="mask0" mask-type="alpha" maskUnits="userSpaceOnUse" x="355" y="151" width="145" height="101">
<path d="M359.065 162.008C359.12 159.717 359.161 158.193 359.337 157.057C359.504 155.976 359.757 155.532 360.04 155.244C360.062 155.223 360.084 155.201 360.106 155.18C360.399 154.902 360.848 154.656 361.933 154.507C363.074 154.349 364.601 154.334 366.897 154.316L489.154 153.375C491.575 153.356 493.192 153.348 494.395 153.499C495.544 153.642 496.009 153.899 496.308 154.191C496.33 154.213 496.353 154.236 496.375 154.259C496.664 154.56 496.916 155.028 497.047 156.176C497.184 157.38 497.156 158.993 497.11 161.409L495.472 245.813C495.409 245.88 495.267 246.004 494.975 246.177C494.274 246.589 493.106 247.025 491.403 247.436C488.028 248.251 483.097 248.848 477.004 249.251C464.851 250.056 448.469 250.069 431.586 249.696C400.188 249.002 367.251 246.974 357.046 246.276L359.065 162.008ZM495.517 245.755C495.518 245.755 495.515 245.762 495.506 245.774C495.512 245.761 495.517 245.755 495.517 245.755Z" fill="#036AAF" stroke="#272560" stroke-width="4"/>
</mask>
<g mask="url(#mask0)">
</g>
<path d="M418.319 261.799L419.319 596" stroke="#66BDFF" stroke-width="8"/>
<path d="M355.603 239.784L497.55 242.261L462.188 263.513C461.706 263.803 461.142 263.951 460.579 263.941C402.203 262.922 369.205 262.346 310.576 261.323L355.603 239.784Z" fill="#308ED4"/>
<path d="M372.659 244.638C373.241 244.337 373.888 244.184 374.544 244.192L466.216 245.296C466.723 245.303 466.9 245.972 466.461 246.226L447.661 257.144C447.03 257.51 446.311 257.697 445.581 257.684L352.59 256.061C352.071 256.052 351.908 255.357 352.369 255.119L372.659 244.638Z" fill="#272560"/>
<path d="M310.515 264.685C310.495 265.787 311.375 266.695 312.478 266.715L459.661 269.284C460.768 269.303 461.858 269.016 462.812 268.455L496.481 248.632C497.08 248.279 497.452 247.642 497.464 246.948L497.546 242.262L462.676 263.218C461.873 263.701 460.95 263.948 460.012 263.932L310.573 261.323L310.515 264.685Z" fill="#036AAF"/>
<mask id="mask1" mask-type="alpha" maskUnits="userSpaceOnUse" x="365" y="161" width="57" height="37">
<path d="M421.261 165.73C421.325 164.275 421.357 163.547 421.025 163.019C420.882 162.791 420.694 162.594 420.473 162.441C419.96 162.085 419.231 162.083 417.773 162.079L370.055 161.937C368.7 161.933 368.022 161.931 367.525 162.25C367.309 162.388 367.122 162.566 366.974 162.775C366.632 163.256 366.604 163.933 366.546 165.286L365.343 193.547C365.281 195.009 365.25 195.739 365.585 196.268C365.729 196.496 365.918 196.693 366.141 196.846C366.657 197.201 367.389 197.198 368.854 197.193L416.546 197.038C417.893 197.034 418.566 197.031 419.059 196.712C419.273 196.574 419.458 196.396 419.606 196.188C419.945 195.709 419.974 195.037 420.033 193.694L421.261 165.73Z" fill="#C4C4C4"/>
</mask>
<g mask="url(#mask1)">
<path d="M427.307 162.193L359.917 161.017L359.064 209.893L426.494 211.422L427.307 162.193Z" fill="white"/>
<path fill-rule="evenodd" clip-rule="evenodd" d="M392.184 168.147C397.994 168.147 402.703 172.85 402.703 178.652L402.703 186.986C402.703 192.249 398.829 196.607 393.773 197.372C393.771 197.415 393.768 197.458 393.766 197.502L380.208 197.502C377.903 195.292 380.508 180.307 382.133 175.341C382.434 174.422 382.722 173.841 383.005 173.517C384.807 170.312 388.242 168.147 392.184 168.147Z" fill="#191847"/>
<path fill-rule="evenodd" clip-rule="evenodd" d="M391.981 190.267C388.954 192.057 385.979 192.922 384.583 192.569C381.081 191.683 380.76 179.121 383.469 174.169C386.178 169.216 400.105 167.058 400.807 176.87C401.05 180.276 399.592 183.315 397.438 185.795L401.301 203.452L390.081 203.452L391.981 190.267Z" fill="#FDD3CD"/>
<path fill-rule="evenodd" clip-rule="evenodd" d="M402.291 176.927C401.965 176.611 401.65 176.306 401.337 176.032L401.352 175.676C401.352 175.676 397.831 168.605 392.417 168.605C387.008 168.605 385.298 171.071 383.844 173.168L383.84 173.173C384.6 175.733 386.893 176.768 389.485 177.94C390.601 178.444 391.773 178.973 392.902 179.66C393.344 179.307 393.908 179.096 394.522 179.096C395.942 179.096 397.093 180.225 397.093 181.618C397.093 183.011 395.942 184.14 394.522 184.14C394.483 184.14 394.444 184.139 394.405 184.137C393.888 189.583 394.095 195.803 395.636 197.279L409.193 197.279C409.583 190.647 407.833 188.755 406.046 186.822C404.364 185.003 402.648 183.148 402.648 177.272C402.528 177.157 402.409 177.042 402.291 176.928L402.291 176.927L402.291 176.927Z" fill="#191847"/>
</g>
<mask id="mask2" mask-type="alpha" maskUnits="userSpaceOnUse" x="364" y="200" width="56" height="36">
<path d="M419.828 204.996C419.887 203.141 419.916 202.214 419.373 201.616C419.344 201.584 419.314 201.554 419.284 201.524C418.703 200.962 417.775 200.96 415.917 200.955L368.863 200.851C367.097 200.847 366.214 200.845 365.639 201.369C365.609 201.396 365.579 201.425 365.55 201.454C365.009 202.012 364.984 202.894 364.934 204.658L364.198 230.705C364.147 232.529 364.121 233.441 364.654 234.034C364.682 234.066 364.711 234.096 364.741 234.126C365.311 234.685 366.224 234.701 368.051 234.733L414.998 235.552C416.783 235.583 417.676 235.599 418.261 235.076C418.292 235.049 418.322 235.02 418.351 234.99C418.902 234.433 418.93 233.541 418.986 231.758L419.828 204.996Z" fill="#C4C4C4"/>
</mask>
<g mask="url(#mask2)">
<path d="M426.127 198.516L358.737 197.339L357.884 246.216L425.314 247.744L426.127 198.516Z" fill="white"/>
<path fill-rule="evenodd" clip-rule="evenodd" d="M391.991 229.718C395.483 231.528 398.843 232.285 400.359 231.774C404.162 230.493 403.515 216.122 400.122 210.676C396.73 205.23 381.151 203.843 381.157 215.102C381.16 219.01 383.016 222.368 385.597 225.033L382.734 245.496L395.146 244.628L391.991 229.718Z" fill="#FDD3CD"/>
<path fill-rule="evenodd" clip-rule="evenodd" d="M391.067 211.708C391.067 211.708 395.204 211.793 400.007 210.088C399.705 207.639 396.987 205.037 390.331 205.503C382.926 206.021 379.259 210.668 379.612 215.723C379.935 220.341 383.265 225.761 385.516 225.833C386.087 225.665 386.532 224.924 386.955 223.916C386.003 223.527 385.283 222.503 385.187 221.121C385.094 219.792 386.161 218.422 387.59 218.322C388.111 218.286 388.608 218.423 389.033 218.677C389.865 217.082 390.961 215.857 392.615 215.866L391.067 211.708Z" fill="#191847"/>
</g>
<path d="M489.116 165.364C489.154 163.512 489.172 162.586 488.624 161.995C488.595 161.963 488.565 161.933 488.534 161.904C487.949 161.348 487.022 161.354 485.168 161.367L429.713 161.746C427.974 161.758 427.105 161.764 426.537 162.281C426.507 162.309 426.478 162.337 426.45 162.367C425.915 162.918 425.884 163.786 425.82 165.521L423.405 232.011C423.338 233.845 423.305 234.761 423.837 235.36C423.865 235.392 423.894 235.422 423.924 235.452C424.493 236.016 425.411 236.034 427.248 236.07L483.749 237.18C485.556 237.216 486.46 237.234 487.048 236.704C487.079 236.676 487.11 236.647 487.139 236.617C487.692 236.051 487.711 235.148 487.747 233.343L489.116 165.364Z" fill="white"/>
<path fill-rule="evenodd" clip-rule="evenodd" d="M451.819 189.297C452.674 190.463 453.96 191.261 455.457 191.392C458.333 191.644 460.883 189.351 461.153 186.272C461.422 183.192 459.309 180.492 456.433 180.24L457.339 169.884C465.521 170.6 471.591 178.357 470.824 187.118C470.058 195.879 462.733 202.464 454.551 201.748C450.253 201.372 446.54 199.085 444.163 195.757L451.819 189.297Z" fill="#272560"/>
<path fill-rule="evenodd" clip-rule="evenodd" d="M457.386 169.888L456.48 180.248C453.613 179.997 451.256 182.324 450.987 185.404L441.157 184.528C441.924 175.764 449.229 169.174 457.386 169.888Z" fill="#B3CEE1"/>
<path fill-rule="evenodd" clip-rule="evenodd" d="M450.999 185.384C450.841 187.194 451.494 188.872 452.635 190.019L445.846 197.783C442.576 194.505 440.703 189.703 441.156 184.522L450.999 185.384Z" fill="#3991D4"/>
<rect width="2.73139" height="11.2004" rx="1.36569" transform="matrix(-1.00042 -0.0174577 -0.017446 0.999216 469.752 218.968)" fill="#3991D4"/>
<rect width="2.73203" height="18.3663" rx="1.36601" transform="matrix(-1.00042 -0.0174626 -0.0174411 0.999216 463.495 211.696)" fill="#3991D4"/>
<rect width="2.73204" height="21.95" rx="1.36602" transform="matrix(-1.00042 -0.017463 -0.0174408 0.999216 457.183 208.002)" fill="#3991D4"/>
<rect width="2.73199" height="18.3663" rx="1.366" transform="matrix(-1.00042 -0.0174672 -0.0174366 0.999216 450.742 211.472)" fill="#3991D4"/>
<rect width="2.73204" height="25.5336" rx="1.36602" transform="matrix(-1.00042 -0.017457 -0.0174467 0.999216 444.486 204.201)" fill="#2866AE"/>
</svg>
