<svg width="168" height="160" viewBox="0 0 168 160" fill="none" xmlns="http://www.w3.org/2000/svg">
<path d="M163.933 88.9889C161.146 136.796 183.529 150.191 93.4709 153.921C42.2636 156.042 -5.8676 126.822 7.15625 71.932C15.1558 38.2175 20.4825 27.1509 66.156 13.932C158.154 -12.6942 166.628 42.7652 163.933 88.9889Z" fill="#ECECF4"/>
<path d="M67.4619 51.0524V68.48V77.222L81.3279 90.4775H94.6719L108.538 77.222V68.48V51.0524H67.4619Z" fill="white"/>
<path d="M117.682 68.48H108.538V77.222L117.682 68.48Z" fill="#3886CA"/>
<path d="M67.4619 77.222L58.3179 68.48V112.476L81.3279 90.4775L67.4619 77.222Z" fill="#66BDFF"/>
<path d="M108.538 77.222L94.6719 90.4775L117.682 112.476V68.48L108.538 77.222Z" fill="#66BDFF"/>
<path d="M67.4619 68.48H58.3179L67.4619 77.222V68.48Z" fill="#3886CA"/>
<path d="M81.3279 90.4775L58.3179 112.476H117.682L94.6719 90.4775H81.3279Z" fill="#66BDFF"/>
<path d="M74.5 61.481H85.2505" stroke="#191847" stroke-width="1.5" stroke-miterlimit="10" stroke-linecap="round" stroke-linejoin="round"/>
<path d="M74.5 67.481H85.2505" stroke="#191847" stroke-width="1.5" stroke-miterlimit="10" stroke-linecap="round" stroke-linejoin="round"/>
<path d="M74.5 73.481H101.5" stroke="#191847" stroke-width="1.5" stroke-miterlimit="10" stroke-linecap="round" stroke-linejoin="round"/>
<path d="M97 79.481H98.5" stroke="#191847" stroke-width="1.5" stroke-miterlimit="10" stroke-linecap="round" stroke-linejoin="round"/>
<path d="M77.5 79.481H92.5" stroke="#191847" stroke-width="1.5" stroke-miterlimit="10" stroke-linecap="round" stroke-linejoin="round"/>
<path d="M69.5109 107.999C72.9216 107.999 75.6865 105.234 75.6865 101.824C75.6865 98.4129 72.9216 95.648 69.5109 95.648C66.1003 95.648 63.3354 98.4129 63.3354 101.824C63.3354 105.234 66.1003 107.999 69.5109 107.999Z" stroke="white" stroke-miterlimit="10" stroke-linecap="round" stroke-linejoin="round"/>
<path d="M84.5154 97.8485C82.9779 99.386 80.4864 99.386 78.9489 97.8485C77.5629 96.4625 75.3984 96.326 73.8594 97.442" stroke="white" stroke-miterlimit="10" stroke-linecap="round" stroke-linejoin="round"/>
<path d="M84.5155 101.824C82.978 103.361 80.4865 103.361 78.949 101.824C78.0325 100.907 76.7755 100.537 75.583 100.714" stroke="white" stroke-miterlimit="10" stroke-linecap="round" stroke-linejoin="round"/>
<path d="M84.5155 105.8C82.978 107.337 80.4865 107.337 78.949 105.8C77.8495 104.7 76.261 104.387 74.884 104.861" stroke="white" stroke-miterlimit="10" stroke-linecap="round" stroke-linejoin="round"/>
<path d="M101.5 61.481H89.7505V67.481H101.5V61.481Z" stroke="#3886CA" stroke-width="1.5" stroke-miterlimit="10" stroke-linecap="round" stroke-linejoin="round"/>
<path d="M42.4 55.847C42.397 56.1485 42.2935 57.65 40.6 57.65C40.597 57.65 40.597 57.65 40.5955 57.65C40.5925 57.65 40.591 57.65 40.588 57.65C40.5865 57.65 40.5865 57.65 40.5865 57.65H40.585C40.585 57.65 40.5835 57.65 40.582 57.65C40.2595 57.659 40 57.9245 40 58.25C40 58.58 40.267 58.8485 40.597 58.85C40.8985 58.853 42.4 58.9565 42.4 60.65C42.4 60.9815 42.6685 61.25 43 61.25C43.3315 61.25 43.6 60.9815 43.6 60.65C43.6 58.9565 45.1015 58.853 45.403 58.85C45.733 58.8485 46 58.58 46 58.25C46 57.9185 45.7315 57.65 45.4 57.65C43.7065 57.65 43.603 56.147 43.6 55.85C43.6 55.847 43.6 55.847 43.6 55.847C43.6 55.8425 43.5985 55.838 43.6 55.838V55.8365V55.835C43.6 55.835 43.6 55.8335 43.6 55.832C43.591 55.5095 43.3255 55.25 43 55.25C42.67 55.25 42.4015 55.517 42.4 55.847Z" fill="#66BDFF"/>
<path d="M134.2 87.6155C134.198 87.767 134.146 88.517 133.3 88.517H133.299H133.295H133.294H133.292C133.13 88.5215 133 88.6535 133 88.817C133 88.982 133.134 89.1155 133.299 89.117C133.45 89.1185 134.2 89.171 134.2 90.017C134.2 90.1835 134.334 90.317 134.5 90.317C134.666 90.317 134.8 90.1835 134.8 90.017C134.8 89.171 135.55 89.1185 135.701 89.117C135.866 89.1155 136 88.982 136 88.817C136 88.6505 135.866 88.517 135.7 88.517C134.852 88.517 134.802 87.7655 134.8 87.617V87.6155C134.8 87.614 134.799 87.611 134.799 87.611C134.8 87.611 134.8 87.611 134.8 87.611V87.6095V87.608C134.796 87.446 134.663 87.317 134.5 87.317C134.335 87.317 134.201 87.4505 134.2 87.6155Z" fill="#66BDFF"/>
<path d="M123.7 70.802C123.698 70.9535 123.646 71.7035 122.8 71.7035H122.799H122.795H122.794H122.792C122.63 71.708 122.5 71.8415 122.5 72.0035C122.5 72.1685 122.634 72.302 122.799 72.3035C122.95 72.305 123.7 72.3575 123.7 73.2035C123.7 73.37 123.834 73.5035 124 73.5035C124.166 73.5035 124.3 73.37 124.3 73.2035C124.3 72.3575 125.05 72.305 125.201 72.3035C125.366 72.302 125.5 72.1685 125.5 72.0035C125.5 71.837 125.366 71.7035 125.2 71.7035C124.352 71.7035 124.302 70.952 124.3 70.8035V70.802C124.3 70.8005 124.299 70.7975 124.299 70.7975C124.3 70.7975 124.3 70.7975 124.3 70.7975V70.796V70.7945C124.296 70.6325 124.163 70.5035 124 70.5035C123.835 70.5035 123.701 70.637 123.7 70.802Z" fill="#3886CA"/>
<path d="M44.95 99.014C44.9485 99.1655 44.896 99.9155 44.05 99.9155C44.0485 99.9155 44.0485 99.9155 44.0485 99.9155C44.047 99.9155 44.0455 99.9155 44.044 99.9155H44.0425C44.0425 99.9155 44.0425 99.9155 44.041 99.9155C43.8805 99.92 43.75 100.052 43.75 100.216C43.75 100.381 43.8835 100.514 44.0485 100.516C44.2 100.517 44.95 100.568 44.95 101.416C44.95 101.582 45.0835 101.716 45.25 101.716C45.4165 101.716 45.55 101.582 45.55 101.416C45.55 100.57 46.3 100.517 46.4515 100.516C46.6165 100.514 46.75 100.381 46.75 100.216C46.75 100.049 46.6165 99.9155 46.45 99.9155C45.6025 99.9155 45.5515 99.164 45.55 99.0155C45.55 99.014 45.55 99.014 45.55 99.014C45.55 99.0125 45.5485 99.0095 45.55 99.0095V99.008V99.0065C45.5455 98.8445 45.4135 98.7155 45.25 98.7155C45.085 98.7155 44.9515 98.849 44.95 99.014Z" fill="#66BDFF"/>
<path d="M60.1016 55.5485C60.1001 55.7 60.0476 56.45 59.2016 56.45C59.2001 56.45 59.2001 56.45 59.2001 56.45C59.1986 56.45 59.1971 56.45 59.1956 56.45H59.1941H59.1926C59.1926 56.45 59.1926 56.45 59.1911 56.45C59.0291 56.4545 58.9001 56.5865 58.9001 56.75C58.9001 56.915 59.0336 57.0485 59.1986 57.05C59.3501 57.0515 60.1001 57.104 60.1001 57.95C60.1001 58.1165 60.2336 58.25 60.4001 58.25C60.5666 58.25 60.7001 58.1165 60.7001 57.95C60.7001 57.104 61.4501 57.0515 61.6016 57.05C61.7666 57.0485 61.9001 56.915 61.9001 56.75C61.9001 56.5835 61.7666 56.45 61.6001 56.45C60.7526 56.45 60.7016 55.6985 60.7001 55.55C60.7001 55.5485 60.7001 55.5485 60.7001 55.5485C60.7001 55.547 60.6986 55.544 60.7001 55.544V55.5425V55.541C60.6956 55.379 60.5636 55.25 60.4001 55.25C60.2366 55.25 60.1031 55.3835 60.1016 55.5485Z" fill="#3886CA"/>
<path d="M128.65 45.485C128.647 45.7865 128.544 47.288 126.85 47.288C126.847 47.288 126.847 47.288 126.847 47.288C126.844 47.288 126.841 47.288 126.84 47.288C126.838 47.288 126.838 47.288 126.838 47.288H126.835C126.835 47.288 126.834 47.288 126.832 47.288C126.51 47.297 126.25 47.5625 126.25 47.888C126.25 48.218 126.517 48.4865 126.847 48.488C127.148 48.491 128.65 48.5945 128.65 50.288C128.65 50.6195 128.918 50.888 129.25 50.888C129.582 50.888 129.85 50.6195 129.85 50.288C129.85 48.5945 131.352 48.491 131.653 48.488C131.983 48.4865 132.25 48.218 132.25 47.888C132.25 47.5565 131.981 47.288 131.65 47.288C129.956 47.288 129.853 45.785 129.85 45.488C129.85 45.485 129.85 45.485 129.85 45.4835C129.85 45.4805 129.849 45.476 129.85 45.476C129.85 45.4745 129.85 45.4745 129.85 45.4745V45.473C129.85 45.473 129.85 45.4715 129.85 45.47C129.841 45.1475 129.576 44.888 129.25 44.888C128.92 44.888 128.651 45.155 128.65 45.485Z" fill="#66BDFF"/>
</svg>
